<svg xmlns="http://www.w3.org/2000/svg" width="320" height="550" viewBox="0 0 320 550"><defs><linearGradient id="pitea" x1="206.23" x2="354.5" y1="372.4" y2="372.4" gradientUnits="userSpaceOnUse"><stop offset="0" stop-color="#00be87"/><stop offset=".03" stop-color="#00be87"/><stop offset="1" stop-color="#3c4876"/></linearGradient><linearGradient id="piteb" x1="-134.83" x2="93.04" y1="314.28" y2="265.24" gradientUnits="userSpaceOnUse"><stop offset="0" stop-color="#00be87"/><stop offset=".03" stop-color="#00be87"/><stop offset="1" stop-color="#3c4876"/></linearGradient><linearGradient id="pitec" x1="171.29" x2="351.81" y1="208.51" y2="208.51" gradientUnits="userSpaceOnUse"><stop offset="0" stop-color="#00be87"/><stop offset=".03" stop-color="#00be87"/><stop offset="1" stop-color="#3c4876"/></linearGradient><linearGradient id="pited" x1="263.25" x2="347.19" y1="48.94" y2="48.94" gradientUnits="userSpaceOnUse"><stop offset="0" stop-color="#00be87"/><stop offset=".03" stop-color="#00be87"/><stop offset="1" stop-color="#3c4876"/></linearGradient><linearGradient id="pitee" x1="-5.32" x2="222.55" y1="438.56" y2="389.51" gradientUnits="userSpaceOnUse"><stop offset="0" stop-color="#00be87"/><stop offset=".03" stop-color="#00be87"/><stop offset="1" stop-color="#3c4876"/></linearGradient></defs><g><g opacity=".87"><g opacity=".87"><path fill="url(#pitea)" d="M349.181 417.447c-.902 0-1.816-.23-2.653-.713L208.893 337.27a5.313 5.313 0 1 1 5.313-9.204l137.637 79.464a5.313 5.313 0 0 1-2.662 9.917z"/></g></g><g opacity=".5"><g opacity=".5"><path fill="url(#piteb)" d="M100.671 414.234a5.202 5.202 0 0 1-2.613-.703l-243.139-140.376a5.237 5.237 0 0 1 5.236-9.071l243.139 140.377a5.237 5.237 0 0 1-2.623 9.773z"/></g></g><g opacity=".35"><g opacity=".35"><path fill="url(#pitec)" d="M351.096 364.552a5.315 5.315 0 0 1-7.259 1.945l-145.549-84.033c-25.798-14.893-34.67-48-19.772-73.798l90.182-156.204a5.314 5.314 0 0 1 9.205 5.314l-90.182 156.203c-11.968 20.72-4.839 47.318 15.881 59.281l145.548 84.032a5.316 5.316 0 0 1 1.946 7.26z"/></g></g><g opacity=".8"><g opacity=".8"><path fill="url(#pited)" d="M268.559 117.75a5.314 5.314 0 0 1-4.597-7.971l73.312-126.982a5.314 5.314 0 0 1 9.205 5.314l-73.314 126.982a5.311 5.311 0 0 1-4.606 2.657z"/></g></g><g opacity=".89"><g opacity=".89"><path fill="url(#pitee)" d="M230.181 538.505a5.217 5.217 0 0 1-2.614-.702L-15.571 397.427a5.238 5.238 0 0 1 5.236-9.072l243.14 140.377a5.238 5.238 0 0 1-2.624 9.773z"/></g></g><g><g><text dominant-baseline="text-before-edge" transform="translate(92 520)"><tspan fill="#fff" font-family="'Myriad Pro','MyriadPro-Regular'" font-size="12">APIs REST simples de usar,</tspan></text></g></g><g><g><text dominant-baseline="text-before-edge" transform="translate(92 535)"><tspan fill="#fff" font-family="'Myriad Pro','MyriadPro-Regular'" font-size="12">compatibles con cualquier</tspan></text></g></g></g></svg>